<?xml version="1.0" encoding="UTF-8" standalone="no"?>
<!-- Creator: CorelDRAW X5 -->

<svg
   xml:space="preserve"
   width="2048px"
   height="2048px"
   style="shape-rendering:geometricPrecision; text-rendering:geometricPrecision; image-rendering:optimizeQuality; fill-rule:evenodd; clip-rule:evenodd"
   viewBox="0 0 2048 2048"
   version="1.1"
   id="svg2"
   sodipodi:docname="logo-dark-mode.svg"
   inkscape:version="1.4 (86a8ad7, 2024-10-11)"
   xmlns:inkscape="http://www.inkscape.org/namespaces/inkscape"
   xmlns:sodipodi="http://sodipodi.sourceforge.net/DTD/sodipodi-0.dtd"
   xmlns="http://www.w3.org/2000/svg"
   xmlns:svg="http://www.w3.org/2000/svg"><sodipodi:namedview
   id="namedview2"
   pagecolor="#ffffff"
   bordercolor="#000000"
   borderopacity="0.25"
   inkscape:showpageshadow="2"
   inkscape:pageopacity="0.0"
   inkscape:pagecheckerboard="0"
   inkscape:deskcolor="#d1d1d1"
   showgrid="false"
   inkscape:zoom="0.39794922"
   inkscape:cx="986.30675"
   inkscape:cy="1003.8969"
   inkscape:window-width="1920"
   inkscape:window-height="1017"
   inkscape:window-x="-8"
   inkscape:window-y="-8"
   inkscape:window-maximized="1"
   inkscape:current-layer="Layer_x0020_1" />
 <defs
   id="defs1">
  <style
   type="text/css"
   id="style1">
   <![CDATA[
    .fil0 {fill:#FFCA28}
    .fil1 {fill:#FFFFFE;fill-rule:nonzero}
   ]]>
  </style>
 </defs>
 <g
   id="Layer_x0020_1"
   inkscape:label="Layer 1">
  <metadata
   id="CorelCorpID_0Corel-Layer" />
  
  
 <rect
   style="fill:#1a1a1a;fill-opacity:1;stroke-width:79.6157;stroke-dasharray:none"
   id="rect2"
   width="2050"
   height="2050"
   x="0.61594963"
   y="0" /><path
   style="fill:#ffffff;stroke-width:200.065"
   d="M 2.5128834,1025.2564 V 1.2564417 H 1026.5129 h 1024 V 1025.2564 v 1024 h -1024 H 2.5128834 Z"
   id="path1" /><path
   style="fill:#ffffff;stroke-width:200.065"
   d="M 2.5128834,1025.2564 V 1.2564417 H 1026.5129 h 1024 V 1025.2564 v 1024 h -1024 H 2.5128834 Z"
   id="path2" /><path
   style="fill:#ffffff;stroke-width:200.065"
   d="M 2.5128834,1025.2564 V 1.2564417 H 1026.5129 h 1024 V 1025.2564 v 1024 h -1024 H 2.5128834 Z"
   id="path3" /><path
   style="fill:#ffffff;stroke-width:200.065"
   d="M 2.5128834,1025.2564 V 1.2564417 H 1026.5129 h 1024 V 1025.2564 v 1024 h -1024 H 2.5128834 Z"
   id="path4" /><path
   style="fill:#ffffff;stroke-width:200.065"
   d="M 2.5128834,1025.2564 V 1.2564417 H 1026.5129 h 1024 V 1025.2564 v 1024 h -1024 H 2.5128834 Z"
   id="path5" /><path
   style="fill:#ffffff;stroke-width:200.065"
   d="m 1.2442799,1025.2564 c 8e-6,-563.891 0.2881686,-794.19882 0.6403565,-511.79511 0.3521879,282.40369 0.3521814,743.76911 -1.48e-5,1025.25641 -0.3521959,281.4874 -0.6403498,50.4298 -0.6403417,-513.4613 z"
   id="path6" /><path
   style="fill:#ffffff;stroke-width:200.065"
   d="m 1.1964021,197.26135 c 0,-108.493743 0.309334,-152.877546 0.6874084,-98.630675 0.3780746,54.246875 0.3780746,143.014475 0,197.261345 -0.3780744,54.24687 -0.6874084,9.86307 -0.6874084,-98.63067 z"
   id="path7" /><path
   style="fill:#ffffff;stroke-width:200.065"
   d="m 0.19838561,248.56605 c 0.12057795,-2.92736 0.71602176,-3.52281 1.51820019,-1.5182 0.7258982,1.81399 0.6366247,3.98135 -0.1983853,4.81636 -0.83501032,0.83501 -1.42892705,-0.64916 -1.31981489,-3.29816 z"
   id="path8" /></g>
</svg>
